<svg xmlns="http://www.w3.org/2000/svg" viewBox="0 0 100 100">
  <defs>
    <linearGradient id="g" x1="0" y1="0" x2="100" y2="100" gradientUnits="userSpaceOnUse">
      <stop stop-color="#FF4D5A"/>
      <stop offset="1" stop-color="#8B0000"/>
    </linearGradient>
  </defs>
  <path fill="url(#g)" d="M 55 8 Q 55 40 87 40 Q 55 40 55 72 Q 55 40 23 40 Q 55 40 55 8 Z"/>
  <path fill="url(#g)" d="M 28 2 Q 28 20 46 20 Q 28 20 28 38 Q 28 20 10 20 Q 28 20 28 2 Z"/>
  <path fill="url(#g)" d="M 32 52 Q 32 66 46 66 Q 32 66 32 80 Q 32 66 18 66 Q 32 66 32 52 Z"/>
  <text x="50" y="98" text-anchor="middle" font-weight="900" font-size="22" font-family="system-ui,sans-serif" fill="url(#g)">P</text>
</svg>
