<svg xmlns="http://www.w3.org/2000/svg" viewBox="0 0 1024 1024" fill="none">
<g stroke="#8A8A8A" stroke-width="2" stroke-linecap="round" stroke-linejoin="round">
  <path d="M 769 359 L 655 245 L 640 239 L 628 240 L 621 243 L 282 575 L 277 584 L 231 724 L 229 742 L 234 757 L 243 766 L 256 771 L 270 771 L 432 718 L 439 714 L 770 390 L 774 381 L 774 369 Z"/>
  <path d="M 417 785 L 789 787 L 797 784 L 805 777 L 808 770 L 808 757 L 801 746 L 786 740 L 466 739 L 454 741 L 445 746 L 419 777 Z"/>
  <path d="M 719 508 L 716 512 L 716 515 L 714 518 L 701 559 L 696 563 L 664 573 L 655 577 L 652 577 L 648 579 L 647 584 L 652 587 L 697 602 L 702 609 L 716 654 L 718 657 L 723 657 L 740 606 L 744 602 L 791 587 L 796 584 L 796 581 L 795 579 L 742 562 L 739 558 L 724 510 Z"/>
  <path d="M 335 195 L 331 201 L 308 272 L 306 274 L 229 299 L 226 301 L 226 306 L 305 334 L 308 337 L 333 414 L 335 416 L 339 416 L 342 411 L 366 337 L 376 331 L 446 308 L 449 306 L 449 301 L 368 274 L 363 267 L 341 198 L 339 195 Z"/>
  <path d="M 717 130 L 714 135 L 714 137 L 713 138 L 713 140 L 712 141 L 712 143 L 711 144 L 711 146 L 709 150 L 709 153 L 707 156 L 707 159 L 705 162 L 705 165 L 703 168 L 703 171 L 702 172 L 701 177 L 699 179 L 695 181 L 693 181 L 692 182 L 690 182 L 689 183 L 687 183 L 686 184 L 684 184 L 683 185 L 681 185 L 680 186 L 678 186 L 677 187 L 675 187 L 674 188 L 672 188 L 671 189 L 669 189 L 668 190 L 666 190 L 665 191 L 663 191 L 662 192 L 660 192 L 659 193 L 654 194 L 652 196 L 652 201 L 654 201 L 657 203 L 660 203 L 663 205 L 665 205 L 666 206 L 671 207 L 674 209 L 676 209 L 677 210 L 679 210 L 680 211 L 682 211 L 683 212 L 685 212 L 686 213 L 688 213 L 689 214 L 691 214 L 694 216 L 696 216 L 698 217 L 701 220 L 701 222 L 702 223 L 702 225 L 703 226 L 703 228 L 704 229 L 704 231 L 705 232 L 705 234 L 706 235 L 706 237 L 707 238 L 707 240 L 709 244 L 709 247 L 711 250 L 711 252 L 712 253 L 712 255 L 713 256 L 713 258 L 714 259 L 715 264 L 717 267 L 721 267 L 724 262 L 724 260 L 726 256 L 726 253 L 728 250 L 728 248 L 729 247 L 729 244 L 731 241 L 731 239 L 733 235 L 733 232 L 734 231 L 734 229 L 735 228 L 735 226 L 736 225 L 736 223 L 738 219 L 740 217 L 742 217 L 743 216 L 745 216 L 746 215 L 748 215 L 749 214 L 751 214 L 752 213 L 754 213 L 755 212 L 760 211 L 763 209 L 766 209 L 769 207 L 771 207 L 772 206 L 774 206 L 775 205 L 780 204 L 783 202 L 788 201 L 789 200 L 789 196 L 786 194 L 784 194 L 783 193 L 780 193 L 779 192 L 777 192 L 776 191 L 774 191 L 773 190 L 771 190 L 770 189 L 768 189 L 767 188 L 765 188 L 764 187 L 762 187 L 761 186 L 756 185 L 753 183 L 750 183 L 749 182 L 747 182 L 744 180 L 742 180 L 740 179 L 737 176 L 737 174 L 735 171 L 735 169 L 734 168 L 734 166 L 733 165 L 733 163 L 732 162 L 732 160 L 731 159 L 731 157 L 730 156 L 730 154 L 729 153 L 729 151 L 728 150 L 728 148 L 727 147 L 727 145 L 726 144 L 726 142 L 725 141 L 725 139 L 723 135 L 723 132 L 722 130 Z"/>
  <path d="M 638 293 L 632 294 L 460 464 L 343 577 L 343 582 L 423 661 L 428 661 L 717 377 L 717 372 Z"/>
  <path d="M 315 612 L 315 613 L 314 614 L 314 616 L 313 617 L 313 619 L 312 620 L 312 622 L 311 623 L 311 625 L 310 626 L 310 628 L 309 629 L 309 631 L 308 632 L 308 634 L 307 635 L 307 637 L 306 638 L 306 640 L 305 641 L 305 643 L 304 644 L 304 646 L 303 647 L 303 649 L 302 650 L 302 653 L 301 654 L 301 656 L 300 657 L 300 659 L 299 660 L 299 662 L 298 663 L 298 665 L 297 666 L 297 668 L 296 669 L 296 671 L 295 672 L 295 678 L 310 693 L 311 693 L 324 706 L 332 706 L 333 705 L 336 705 L 337 704 L 339 704 L 340 703 L 342 703 L 343 702 L 345 702 L 346 701 L 348 701 L 349 700 L 351 700 L 352 699 L 354 699 L 355 698 L 357 698 L 358 697 L 360 697 L 361 696 L 363 696 L 364 695 L 367 695 L 370 693 L 373 693 L 374 692 L 376 692 L 377 691 L 379 691 L 380 690 L 382 690 L 383 689 L 385 689 L 386 688 L 388 688 L 389 687 L 390 687 L 391 686 L 392 686 L 392 682 L 374 664 L 373 664 L 336 627 L 335 627 L 320 612 Z"/>
</g></svg>
